<svg width="0" height="0" class="hidden">
  <symbol viewBox="0 0 30 30" xmlns="http://www.w3.org/2000/svg" id="iconfinder_instagram_306188">
    <path d="M26 0H3.5C1.582 0 .027 1.586.004 3.5L0 3.458V26.5A3.5 3.5 0 0 0 3.5 30h23c1.873-.067 3.5-1.609 3.5-3.5v-23C29.978 1.629 27.859.067 26 0zM15 9.5a5.5 5.5 0 1 1 0 11 5.5 5.5 0 0 1 0-11zM26 24a2 2 0 0 1-2 2H6a2 2 0 0 1-2-2V12.5h2.359A9.008 9.008 0 0 0 6 15c0 4.97 4.031 9 9 9a9 9 0 0 0 9-9c0-.868-.13-1.706-.359-2.5H26l-.004 11.461c0 .014.004.025.004.039zm0-18.992v3.016h-.005a.995.995 0 0 1-.979.974V9H22a.997.997 0 0 1-.995-.977H21V5.008h.002L21 5a1 1 0 0 1 1-1h3.016v.003c.545.009.984.45.984.997l-.002.008H26z"></path>
  </symbol>
  <symbol viewBox="0 0 30 30" xmlns="http://www.w3.org/2000/svg" id="iconfinder_facebook_306192">
    <path d="M22 16l1-5-5 .001V7c0-1.544.784-2 3-2h2V0h-4c-4.072 0-7 2.435-7 7v4H7v5h5v14h6V16h4z"></path>
  </symbol>
  <symbol viewBox="0 0 30 30" xmlns="http://www.w3.org/2000/svg" id="iconfinder_pinterest_306183">
    <path d="M16 0C7.813 0 3 6.105 3 11c0 2.964 2 6 3 6s2 0 2-1-2-2-2-5c0-4.354 4.773-8 10-8 4.627 0 7 3.224 7 7 0 4.968-2.735 9-6 9-1.803 0-3.433-1.172-3-3 .519-2.184 1-2 2-6 .342-1.368-.433-3-2-3-1.843 0-4 1.446-4 4 0 1.627 1 3 1 3s-2.245 7.863-2.576 9.263C7.766 26.049 6.938 30 7.938 30S10 28 12 23c.295-.738 1-3 1-3 .599 1.142 3.14 2 5 2 5.539 0 9-5.24 9-12 0-5.112-4.42-10-11-10z"></path>
  </symbol>
  <symbol viewBox="0 0 30 30" xmlns="http://www.w3.org/2000/svg" id="iconfinder_twitter_306166">
    <path d="M30 6.708c-1.105.491-2.756 1.143-4 1.292 1.273-.762 2.539-2.561 3-4-.971.577-2.087 1.355-3.227 1.773L25 5c-1.121-1.197-2.23-2-4-2-3.398 0-6 2.602-6 6 0 .399.047.7.11.956L15 10C9 10 5.034 8.724 2 5c-.531.908-1 1.872-1 3 0 2.136 1.348 3.894 3 5-1.009-.033-2.171-.542-3-1 0 2.98 4.186 6.432 7 7-1 1-4.623.074-5 0 .784 2.447 3.309 3.949 6 4-2.105 1.648-4.647 2.51-7.531 2.51-.498 0-.987-.029-1.469-.084C2.723 27.17 6.523 28 10 28c11.322 0 17-8.867 17-17 0-.268.008-.736 0-1 1.201-.868 2.172-2.058 3-3.292z"></path>
  </symbol>
</svg>
